# Blender v2.69 (sub 0) OBJ File: 'table2.blend'
# www.blender.org
o Cube
v 2.842891 -0.765742 -2.000000
v 2.842891 -0.765742 2.000000
v -2.637398 -0.765742 2.000000
v -2.637397 -0.765742 -2.000001
v 2.842892 0.809809 -1.999999
v 2.842889 0.809809 2.000001
v -2.637398 0.809809 1.999999
v -2.637397 0.809809 -2.000000
v -2.089369 -0.518876 -1.600000
v -2.089369 -0.518876 1.600000
v 2.294861 -0.518876 1.600001
v 2.294863 -0.518876 -1.599999
v 2.294863 0.809809 -1.599999
v 2.294861 0.809809 1.600001
v -2.089369 0.809809 1.600000
v -2.089369 0.809809 -1.600000
v 0.102746 -0.548634 0.000000
vt 0.000000 0.000000
vt 1.000000 0.000000
vt 0.000000 1.000000
vt 1.000000 1.000000
vn 0.000000 -1.000000 0.000000
vn 1.000000 -0.000001 0.000000
vn 0.000000 -0.000001 1.000000
vn -1.000000 -0.000000 -0.000000
vn 0.000000 0.000001 -1.000000
vn 0.000000 1.000000 0.000000
vn 0.000000 0.000000 -1.000000
vn 1.000000 0.000000 0.000000
vn 0.013574 0.999908 0.000000
vn 0.000000 0.999827 -0.018595
vn -0.000000 0.999827 0.018595
vn -0.013574 0.999908 -0.000000
vn 1.000000 0.000001 0.000001
vn -0.000000 0.000000 1.000000
vn -1.000000 0.000000 -0.000001
s off
f 1/1/1 2/2/1 4/3/1
f 1/1/2 5/2/2 2/3/2
f 2/1/3 6/2/3 3/3/3
f 3/1/4 7/2/4 4/3/4
f 5/1/5 1/2/5 8/3/5
f 6/1/6 5/2/6 14/3/6
f 5/1/6 8/2/6 13/3/6
f 7/1/6 6/2/6 15/3/6
f 8/1/6 7/2/6 16/3/6
f 15/1/7 14/2/7 10/3/7
f 16/1/8 15/2/8 9/3/8
f 9/1/9 10/2/9 17/4/9
f 10/1/10 11/2/10 17/4/10
f 12/1/11 9/2/11 17/4/11
f 11/1/12 12/2/12 17/4/12
f 2/2/1 3/4/1 4/3/1
f 5/2/13 6/4/13 2/3/13
f 6/2/14 7/4/14 3/3/14
f 7/2/4 8/4/4 4/3/4
f 1/2/7 4/4/7 8/3/7
f 5/2/6 13/4/6 14/3/6
f 8/2/6 16/4/6 13/3/6
f 6/2/6 14/4/6 15/3/6
f 7/2/6 15/4/6 16/3/6
f 14/2/7 11/4/7 10/3/7
f 15/2/8 10/4/8 9/3/8
f 14/1/15 13/2/15 11/3/15
f 13/1/14 16/2/14 12/3/14
f 13/2/15 12/4/15 11/3/15
f 16/2/14 9/4/14 12/3/14
